<svg width="152" height="26" viewBox="0 0 151 26" fill="none" xmlns="http://www.w3.org/2000/svg"><path d="M4.11241 20.0378C3.7787 20.0378 3.49764 19.9806 3.26925 19.8667C3.04147 19.7528 2.86879 19.5793 2.75307 19.3504C2.63734 19.1215 2.57794 18.8413 2.57794 18.5124V15.1204C2.57794 14.7023 2.49406 14.398 2.32812 14.2083C2.16095 14.0191 1.86459 13.9191 1.43964 13.9094C1.30738 13.9094 1.20145 13.86 1.12124 13.7594C1.0398 13.66 1 13.5449 1 13.4166C1 13.2774 1.0398 13.1624 1.12124 13.0726C1.20206 12.9828 1.30922 12.9334 1.43964 12.9238C1.86459 12.9135 2.16095 12.8141 2.32812 12.6249C2.49528 12.4358 2.57794 12.1363 2.57794 11.7279V8.33591C2.57794 7.83766 2.7102 7.45871 2.97289 7.20024C3.23557 6.94178 3.61582 6.81165 4.11241 6.81165H8.16473C8.3172 6.81165 8.44272 6.85683 8.54437 6.946C8.6454 7.03577 8.69684 7.15084 8.69684 7.28881C8.69684 7.41894 8.65397 7.5304 8.56825 7.62559C8.48252 7.72078 8.36863 7.76838 8.22596 7.76838H4.46327C4.24957 7.76838 4.08792 7.8232 3.97709 7.93286C3.86565 8.04251 3.80993 8.2118 3.80993 8.44195V11.8496C3.80993 12.1484 3.74869 12.4195 3.62746 12.6635C3.50622 12.9081 3.34395 13.0997 3.14128 13.2401C2.9386 13.3792 2.70163 13.4491 2.42793 13.4491V13.3889C2.70163 13.3889 2.9386 13.4588 3.14128 13.5979C3.34395 13.7371 3.50622 13.9293 3.62746 14.1745C3.74869 14.4185 3.80993 14.6896 3.80993 14.9885V18.4111C3.80993 18.6413 3.86565 18.81 3.97709 18.9202C4.08853 19.0311 4.2508 19.0847 4.46327 19.0847H8.22596C8.36741 19.0847 8.4813 19.1323 8.56825 19.2269C8.6552 19.3221 8.69684 19.4341 8.69684 19.5637C8.69684 19.6932 8.64663 19.8041 8.54437 19.8993C8.44272 19.9944 8.31659 20.0414 8.16473 20.0414H4.11241V20.0384V20.0378Z" fill="currentColor" stroke="currentColor" stroke-width="0.259057" stroke-miterlimit="10"></path><path d="M14.0467 20.038C13.8942 20.038 13.7687 19.9904 13.6671 19.8958C13.5654 19.8006 13.5146 19.6886 13.5146 19.5603C13.5146 19.4319 13.5574 19.3187 13.6432 19.2235C13.7289 19.1283 13.8428 19.0813 13.9855 19.0813H17.7482C17.9619 19.0813 18.1235 19.0277 18.2343 18.9168C18.3458 18.8072 18.4015 18.6379 18.4015 18.4077V14.985C18.4015 14.6862 18.4627 14.4151 18.584 14.1711C18.7052 13.9265 18.8675 13.7349 19.0701 13.5945C19.2728 13.4554 19.5098 13.3855 19.7835 13.3855V13.4457C19.5098 13.4457 19.2728 13.3758 19.0701 13.2367C18.8675 13.0975 18.7052 12.9053 18.584 12.6601C18.4627 12.4161 18.4015 12.145 18.4015 11.8461V8.43853C18.4015 8.20959 18.3458 8.04029 18.2343 7.92944C18.1229 7.81979 17.9606 7.76496 17.7482 7.76496H13.9855C13.844 7.76496 13.7301 7.71737 13.6432 7.62217C13.5574 7.52819 13.5146 7.41552 13.5146 7.28539C13.5146 7.14622 13.5648 7.03235 13.6671 6.94258C13.7681 6.85281 13.8942 6.80823 14.0467 6.80823H18.099C18.5956 6.80823 18.9746 6.93836 19.2385 7.19683C19.5024 7.45529 19.6335 7.83425 19.6335 8.33249V11.7244C19.6335 12.1329 19.7174 12.433 19.8833 12.6215C20.0505 12.8107 20.3468 12.9107 20.7718 12.9204C20.904 12.93 21.01 12.9794 21.0902 13.0692C21.1716 13.1589 21.2114 13.274 21.2114 13.4132C21.2114 13.5433 21.1716 13.6572 21.0902 13.756C21.01 13.8554 20.9022 13.906 20.7718 13.906C20.3468 13.9156 20.0511 14.0157 19.8833 14.2048C19.7161 14.394 19.6335 14.6977 19.6335 15.117V18.5089C19.6335 18.8385 19.5753 19.1168 19.4584 19.347C19.3414 19.5771 19.17 19.7482 18.9422 19.8633C18.7138 19.9772 18.4327 20.0344 18.099 20.0344H14.0467V20.0374V20.038Z" fill="currentColor" stroke="currentColor" stroke-width="0.259057" stroke-miterlimit="10"></path><path d="M15.0882 14.714C15.8261 14.714 16.4243 14.1254 16.4243 13.3994C16.4243 12.6735 15.8261 12.0848 15.0882 12.0848C14.3504 12.0848 13.7521 12.6735 13.7521 13.3994C13.7521 14.1254 14.3504 14.714 15.0882 14.714Z" fill="currentColor" stroke="currentColor" stroke-width="0.259057" stroke-miterlimit="10"></path><path d="M7.60445 14.714C8.34229 14.714 8.94053 14.1254 8.94053 13.3994C8.94053 12.6735 8.34229 12.0848 7.60445 12.0848C6.86661 12.0848 6.26837 12.6735 6.26837 13.3994C6.26837 14.1254 6.86661 14.714 7.60445 14.714Z" fill="currentColor" stroke="currentColor" stroke-width="0.259057" stroke-miterlimit="10"></path><path d="M10.6507 3.0079L10.5485 5.69435C10.5485 5.84497 10.404 5.92028 10.1149 5.92028C9.82593 5.92028 9.68142 5.84497 9.68142 5.69435C9.6557 5.025 9.63488 4.50566 9.61774 4.13755C9.60917 3.761 9.60059 3.4929 9.59202 3.33384C9.58345 3.17479 9.57916 3.07839 9.57916 3.04526V2.99525C9.57916 2.80306 9.75796 2.70667 10.1149 2.70667C10.4719 2.70667 10.6507 2.80728 10.6507 3.0079ZM12.8195 3.0079L12.7173 5.69435C12.7173 5.84497 12.5728 5.92028 12.2838 5.92028C11.9948 5.92028 11.8502 5.84497 11.8502 5.69435C11.8245 5.025 11.8037 4.50566 11.7866 4.13755C11.778 3.761 11.7694 3.4929 11.7609 3.33384C11.7523 3.17479 11.748 3.07839 11.748 3.04526V2.99525C11.748 2.80306 11.9268 2.70667 12.2838 2.70667C12.6408 2.70667 12.8195 2.80728 12.8195 3.0079Z" fill="currentColor" stroke="currentColor" stroke-width="0.259057" stroke-miterlimit="10"></path></svg>